# xmcd
#
# Track frame offsets: 
#        150
#        15597
#        32317
#        48687
#        66980
#        87680
#        101960
#        119602
#        140495
#        157052
#        187630
#        212815
#        231432
#
# Disc length: 3365 seconds
#
# Revision: 2
# Processed by: cddbd v1.5.1PL2 Copyright (c) Steve Scherf et al.
# Submitted via: ExactAudioCopy v0.95b4
#
DISCID=bd0d230d
DTITLE=Various Artist - Still On Target - The First Five Years
DYEAR=1900
DGENRE=Blues
TTITLE0=Albert Collins - Frosty
TTITLE1=John Hammond - I've Got Love If You Want It
TTITLE2=Larry McCray - Witchin' Moon
TTITLE3=Walter Wolfman Washington - Ain't No Love In The Heart Of The 
TTITLE3=City
TTITLE4=John Lee Hooker - Thought I Heard
TTITLE5=The Kinsey Report - Too Early To Tell
TTITLE6=Terrell - Let's Go For A Ride
TTITLE7=Duke Robillard - "You Got My Love) Sewed Up
TTITLE8=Johnny Winter - The Illustrated Man
TTITLE9=Pops Staples - Why Am I Treated So Bad
TTITLE10=Terry Evans - Get Your Lies Straight
TTITLE11=Isaac Hayes - Soulsville
TTITLE12=Isaac Hayes - The Night Before
EXTD=ID3G: 0
EXTT0=
EXTT1=
EXTT2=
EXTT3=
EXTT4=
EXTT5=
EXTT6=
EXTT7=
EXTT8=
EXTT9=
EXTT10=
EXTT11=
EXTT12=
PLAYORDER=
